<svg id="Layer_1" data-name="Layer 1" xmlns="http://www.w3.org/2000/svg" viewBox="0 0 867.83 194.69"><defs><style>.cls-1{fill:#fff;}.cls-2{fill:#f15a27;}</style></defs><path class="cls-1" d="M164.47,479.73c0-10.11.08-19.78.3-25h-.22c-2.07,6.94-12.55,32.41-19.12,48.73h-3.91c-5-12.62-15.8-41-18.16-48.8h-.15c.37,5.91.51,17.94.51,26.8v22h-4V451.82h6c7.08,17.72,16,40.9,17.93,46.73h.16c1.17-3.76,11.51-29.53,18.74-46.73h5.91V503.5h-4Z" transform="translate(114.96 -375.5)"/><path class="cls-1" d="M180.36,466.58c6,16.92,10.12,28.43,11.52,33.15H192c.82-2.73,5-13.72,12.11-33.15H208L194,503.5h-4.43l-13.14-36.92Z" transform="translate(114.96 -375.5)"/><path class="cls-1" d="M245.11,485c0,10.26-5.68,19.41-16.68,19.41-10,0-16.17-8.19-16.17-19.34,0-10.55,5.84-19.34,16.54-19.34C238.61,465.7,245.11,473.38,245.11,485Zm-28.93.07c0,8.79,4.72,15.87,12.54,15.87,8,0,12.48-6.57,12.48-15.87,0-8.71-4.43-15.87-12.63-15.87C220.16,469.17,216.18,476.18,216.18,485Z" transform="translate(114.96 -375.5)"/><path class="cls-1" d="M254.28,475.89c0-3.25,0-6.35-.08-9.31h3.62c.15,1.19.22,6,.15,7,1.62-3.76,4.65-7.9,12.25-7.9,6.57,0,12.4,3.69,12.4,13.88V503.5h-3.69V480.17c0-6.57-2.73-10.85-9.15-10.85-8.78,0-11.81,7.31-11.81,15.35V503.5h-3.69Z" transform="translate(114.96 -375.5)"/><path class="cls-1" d="M324.64,485c0,10.26-5.69,19.41-16.69,19.41-10,0-16.16-8.19-16.16-19.34,0-10.55,5.83-19.34,16.54-19.34C318.14,465.7,324.64,473.38,324.64,485ZM295.7,485c0,8.79,4.73,15.87,12.55,15.87,8,0,12.47-6.57,12.47-15.87,0-8.71-4.43-15.87-12.62-15.87C299.69,469.17,295.7,476.18,295.7,485Z" transform="translate(114.96 -375.5)"/><path class="cls-1" d="M390,488.91c-2.05,9.49-9.21,16.41-21.95,16.41-16.13,0-23.77-11.42-23.77-25.9,0-13.95,7.87-26.45,24.3-26.45,13.55,0,20.12,7.95,21.36,16.46h-11c-1.06-3.92-3.79-7.83-10.7-7.83-9.07,0-12.58,8.16-12.58,17.42,0,8.61,3,17.67,12.87,17.67,7.18,0,9.45-4.81,10.41-7.78Z" transform="translate(114.96 -375.5)"/><path class="cls-1" d="M433.24,485.42c0,11.56-6.92,20.06-19,20.06-11.85,0-18.76-8.44-18.76-19.85,0-11.79,7.13-20.12,19.26-20.12C426,465.51,433.24,473.44,433.24,485.42Zm-27.05.08c0,7.35,3.17,11.71,8.26,11.71s8.06-4.36,8.06-11.65c0-8-2.94-11.78-8.21-11.78C409.4,473.78,406.19,477.42,406.19,485.5Z" transform="translate(114.96 -375.5)"/><path class="cls-1" d="M440.59,476c0-3.24,0-6.79-.08-9.62h10.25a44.42,44.42,0,0,1,.4,4.87c1.3-2.4,4.4-5.75,11.09-5.75,7.68,0,12.66,5.18,12.66,14.78V504.6H464.33V481.47c0-4.3-1.43-7.41-6.1-7.41-4.5,0-7.07,2.5-7.07,9.25V504.6H440.59Z" transform="translate(114.96 -375.5)"/><path class="cls-1" d="M491.44,493.12c.8,3,3.28,4.75,7.23,4.75s5.33-1.4,5.33-3.72-1.64-3.41-7.11-4.76c-12.45-3.07-14.49-6.92-14.49-12.31,0-5.62,4-11.57,15.5-11.57s15.51,6.33,15.84,11.5H503.68c-.34-1.41-1.28-4.08-6.26-4.08-3.49,0-4.62,1.55-4.62,3.27,0,1.9,1.18,2.81,7.38,4.27,12.75,3,14.56,7.33,14.56,12.93,0,6.33-4.81,12.08-16.46,12.08s-16.39-5.59-17.23-12.36Z" transform="translate(114.96 -375.5)"/><path class="cls-1" d="M554.88,493.5c0,3.68,0,7.68.07,11.1H544.59c-.15-1-.22-3.07-.29-4.4-2.26,3.83-5.64,5.28-10.52,5.28-7.78,0-12.76-4.73-12.76-14.2V466.39H531.6v22.77c0,4.22,1.3,7.71,5.88,7.71,4.83,0,6.82-2.58,6.82-10.14V466.39h10.58Z" transform="translate(114.96 -375.5)"/><path class="cls-1" d="M564.43,504.6V450.72H575V504.6Z" transform="translate(114.96 -375.5)"/><path class="cls-1" d="M580.87,466.39h5.89V456h10.57v10.35h7.49v8h-7.49V493.2c0,2.9.89,4,4,4a19.36,19.36,0,0,0,2.41-.12v7.28a24.1,24.1,0,0,1-7.11.73c-7.45,0-9.91-4-9.91-10.67v-20.1h-5.89Z" transform="translate(114.96 -375.5)"/><path class="cls-1" d="M642.63,494.73a83.75,83.75,0,0,0,.52,9.87H633a16,16,0,0,1-.53-3.73c-1.39,2.14-4,4.61-10.75,4.61-9.2,0-13.09-6.05-13.09-12,0-8.7,7-12.72,18.19-12.72h5.45v-2.33c0-2.72-1-5.39-5.88-5.39-4.47,0-5.45,1.9-5.93,4.67H610.44c.58-6.8,4.77-12.29,16.39-12.22,10.23.06,15.8,4.06,15.8,13.16Zm-10.31-7.52H628c-6.37,0-8.74,1.94-8.74,5.63,0,2.76,1.7,5.09,5.5,5.09,6.72,0,7.55-4.67,7.55-9.72Z" transform="translate(114.96 -375.5)"/><path class="cls-1" d="M652.29,476c0-3.24,0-6.79-.08-9.62h10.24a42,42,0,0,1,.41,4.87c1.3-2.4,4.39-5.75,11.08-5.75,7.68,0,12.67,5.18,12.67,14.78V504.6H676V481.47c0-4.3-1.44-7.41-6.1-7.41-4.5,0-7.07,2.5-7.07,9.25V504.6H652.29Z" transform="translate(114.96 -375.5)"/><path class="cls-1" d="M691.55,466.39h5.89V456H708v10.35h7.48v8H708V493.2c0,2.9.89,4,4,4a19.45,19.45,0,0,0,2.41-.12v7.28a24.14,24.14,0,0,1-7.11.73c-7.45,0-9.92-4-9.92-10.67v-20.1h-5.89Z" transform="translate(114.96 -375.5)"/><path class="cls-1" d="M729.58,493.12c.79,3,3.28,4.75,7.23,4.75s5.33-1.4,5.33-3.72-1.64-3.41-7.11-4.76c-12.45-3.07-14.49-6.92-14.49-12.31,0-5.62,4-11.57,15.49-11.57s15.51,6.33,15.84,11.5h-10c-.35-1.41-1.29-4.08-6.26-4.08-3.5,0-4.63,1.55-4.63,3.27,0,1.9,1.19,2.81,7.39,4.27,12.75,3,14.55,7.33,14.55,12.93,0,6.33-4.81,12.08-16.46,12.08s-16.39-5.59-17.23-12.36Z" transform="translate(114.96 -375.5)"/><path class="cls-1" d="M-73.9,403.12h27.14a19,19,0,0,1,11.4,3.79,47.05,47.05,0,0,1,15.41,19.93l31.51,77.22H-24.76a46.77,46.77,0,0,1-17-21.2Z" transform="translate(114.96 -375.5)"/><path class="cls-1" d="M-10.23,403.12H16.91a19.08,19.08,0,0,1,11.4,3.79,47,47,0,0,1,15.4,19.93l31.52,77.22H38.91a46.79,46.79,0,0,1-17.06-21.2Z" transform="translate(114.96 -375.5)"/><path class="cls-1" d="M-86.18,466.68A19.66,19.66,0,0,0-99,488a19.59,19.59,0,0,0,16.56,16h31.51l-11.82-28.64a15.36,15.36,0,0,0-9.7-9l-.11,0A23.31,23.31,0,0,0-86.18,466.68Z" transform="translate(114.96 -375.5)"/><path class="cls-2" d="M-99.65,558.1q-5.89,2.55-11.6,5.47a17.25,17.25,0,0,0,13.6,6.62H73.64A17.29,17.29,0,0,0,90.8,555C49,542.3-28.24,527.19-99.65,558.1Z" transform="translate(114.96 -375.5)"/><path class="cls-2" d="M-104.75,546.32c72-31.15,147.46-19.05,195.7-4.71V392.8a17.31,17.31,0,0,0-17.31-17.3H-97.65A17.31,17.31,0,0,0-115,392.8V551.07C-111.6,549.41-108.2,547.81-104.75,546.32Z" transform="translate(114.96 -375.5)"/><path class="cls-1" d="M-73.07,403.12h27.14a19,19,0,0,1,11.4,3.79,47.13,47.13,0,0,1,15.41,19.93l31.51,77.22H-23.93A46.79,46.79,0,0,1-41,482.86Z" transform="translate(114.96 -375.5)"/><path class="cls-1" d="M-9.41,403.12H17.73a19,19,0,0,1,11.4,3.79,47.05,47.05,0,0,1,15.41,19.93l31.51,77.22H39.73a46.86,46.86,0,0,1-17.06-21.2Z" transform="translate(114.96 -375.5)"/><path class="cls-1" d="M-85.35,466.68A19.66,19.66,0,0,0-98.17,488a19.57,19.57,0,0,0,16.55,16H-50.1l-11.82-28.64a15.4,15.4,0,0,0-9.71-9l-.1,0A23.31,23.31,0,0,0-85.35,466.68Z" transform="translate(114.96 -375.5)"/></svg>