<svg id="Layer_1" data-name="Layer 1" xmlns="http://www.w3.org/2000/svg" viewBox="0 0 255.44 57.31"><defs><style>.cls-1{fill:#1a0e25;}.cls-2{fill:#fff;}.cls-3{fill:#f15a27;}</style></defs><path class="cls-1" d="M351,307.66c0-3,0-5.82.09-7.34H351c-.61,2-3.69,9.54-5.63,14.34H344.2c-1.45-3.72-4.65-12.06-5.34-14.37h-.05c.11,1.74.16,5.28.16,7.89v6.48h-1.18V299.45h1.76c2.09,5.21,4.72,12,5.28,13.75h.05c.34-1.11,3.39-8.69,5.51-13.75h1.74v15.21H351Z" transform="translate(-268.71 -276.98)"/><path class="cls-1" d="M355.64,303.79c1.76,5,3,8.37,3.39,9.76h0c.24-.81,1.45-4,3.56-9.76h1.15l-4.1,10.87h-1.31l-3.86-10.87Z" transform="translate(-268.71 -276.98)"/><path class="cls-1" d="M374.7,309.2c0,3-1.68,5.72-4.91,5.72-2.94,0-4.76-2.41-4.76-5.69,0-3.11,1.71-5.7,4.86-5.7C372.78,303.53,374.7,305.79,374.7,309.2Zm-8.52,0c0,2.58,1.39,4.67,3.69,4.67s3.67-1.94,3.67-4.67c0-2.57-1.3-4.68-3.71-4.68S366.18,306.62,366.18,309.23Z" transform="translate(-268.71 -276.98)"/><path class="cls-1" d="M377.39,306.53c0-1,0-1.87,0-2.74h1.07c0,.35.06,1.76,0,2.07a3.55,3.55,0,0,1,3.61-2.33c1.93,0,3.65,1.09,3.65,4.09v7h-1.09v-6.87c0-1.93-.8-3.19-2.69-3.19-2.59,0-3.48,2.15-3.48,4.52v5.54h-1.09Z" transform="translate(-268.71 -276.98)"/><path class="cls-1" d="M398.1,309.2c0,3-1.67,5.72-4.91,5.72-2.93,0-4.75-2.41-4.75-5.69,0-3.11,1.71-5.7,4.86-5.7C396.19,303.53,398.1,305.79,398.1,309.2Zm-8.51,0c0,2.58,1.39,4.67,3.69,4.67S397,312,397,309.23c0-2.57-1.3-4.68-3.71-4.68S389.59,306.62,389.59,309.23Z" transform="translate(-268.71 -276.98)"/><path class="cls-1" d="M417.34,310.36c-.6,2.8-2.71,4.83-6.46,4.83-4.75,0-7-3.36-7-7.62,0-4.1,2.31-7.78,7.15-7.78,4,0,5.92,2.34,6.29,4.84h-3.24a3,3,0,0,0-3.15-2.31c-2.68,0-3.71,2.41-3.71,5.13,0,2.54.9,5.2,3.79,5.2a3,3,0,0,0,3.06-2.29Z" transform="translate(-268.71 -276.98)"/><path class="cls-1" d="M430.07,309.34c0,3.4-2,5.9-5.6,5.9S419,312.76,419,309.4s2.1-5.93,5.67-5.93C427.93,303.47,430.07,305.81,430.07,309.34Zm-8,0c0,2.16.93,3.45,2.43,3.45s2.37-1.29,2.37-3.43c0-2.36-.86-3.47-2.41-3.47S422.11,307,422.11,309.36Z" transform="translate(-268.71 -276.98)"/><path class="cls-1" d="M432.23,306.57c0-1,0-2,0-2.83h3c.06.29.1,1.07.12,1.43a3.42,3.42,0,0,1,3.26-1.7c2.26,0,3.73,1.53,3.73,4.36V315h-3.12v-6.81c0-1.26-.42-2.18-1.79-2.18s-2.08.74-2.08,2.73V315h-3.12Z" transform="translate(-268.71 -276.98)"/><path class="cls-1" d="M447.2,311.6a2,2,0,0,0,2.13,1.4c1.15,0,1.57-.41,1.57-1.09s-.48-1-2.09-1.4c-3.67-.91-4.27-2-4.27-3.63s1.17-3.41,4.56-3.41,4.57,1.87,4.67,3.39h-3c-.11-.41-.38-1.2-1.85-1.2-1,0-1.36.46-1.36,1s.35.83,2.18,1.26c3.75.87,4.28,2.16,4.28,3.81,0,1.86-1.42,3.55-4.85,3.55s-4.82-1.64-5.07-3.64Z" transform="translate(-268.71 -276.98)"/><path class="cls-1" d="M465.88,311.71c0,1.09,0,2.27,0,3.27h-3c-.05-.3-.07-.9-.09-1.29a3.21,3.21,0,0,1-3.1,1.55c-2.28,0-3.75-1.39-3.75-4.18v-7.32H459v6.7c0,1.24.39,2.27,1.73,2.27s2-.76,2-3v-6h3.12Z" transform="translate(-268.71 -276.98)"/><path class="cls-1" d="M468.69,315V299.12h3.11V315Z" transform="translate(-268.71 -276.98)"/><path class="cls-1" d="M473.52,303.74h1.74v-3.05h3.11v3.05h2.2v2.34h-2.2v5.55c0,.85.26,1.18,1.19,1.18a6.11,6.11,0,0,0,.71,0v2.14a7,7,0,0,1-2.09.21c-2.2,0-2.92-1.17-2.92-3.14v-5.91h-1.74Z" transform="translate(-268.71 -276.98)"/><path class="cls-1" d="M491.7,312.08a23.66,23.66,0,0,0,.16,2.9h-3a5.2,5.2,0,0,1-.16-1.1c-.4.63-1.17,1.36-3.16,1.36-2.71,0-3.85-1.78-3.85-3.52,0-2.57,2.06-3.75,5.35-3.75h1.61v-.69c0-.8-.29-1.58-1.73-1.58s-1.61.56-1.75,1.37h-3c.17-2,1.4-3.61,4.82-3.6,3,0,4.65,1.2,4.65,3.88Zm-3-2.22H487.4c-1.88,0-2.57.58-2.57,1.66a1.45,1.45,0,0,0,1.62,1.5c2,0,2.22-1.38,2.22-2.86Z" transform="translate(-268.71 -276.98)"/><path class="cls-1" d="M494.55,306.57c0-1,0-2,0-2.83h3c.06.29.1,1.07.12,1.43a3.42,3.42,0,0,1,3.26-1.7c2.26,0,3.73,1.53,3.73,4.36V315h-3.11v-6.81c0-1.26-.43-2.18-1.8-2.18s-2.08.74-2.08,2.73V315h-3.11Z" transform="translate(-268.71 -276.98)"/><path class="cls-1" d="M506.1,303.74h1.74v-3.05H511v3.05h2.2v2.34H511v5.55c0,.85.26,1.18,1.19,1.18a6.11,6.11,0,0,0,.71,0v2.14a7.08,7.08,0,0,1-2.09.21c-2.2,0-2.92-1.17-2.92-3.14v-5.91H506.1Z" transform="translate(-268.71 -276.98)"/><path class="cls-1" d="M517.3,311.6a1.94,1.94,0,0,0,2.13,1.4c1.14,0,1.56-.41,1.56-1.09s-.48-1-2.09-1.4c-3.66-.91-4.26-2-4.26-3.63s1.17-3.41,4.56-3.41,4.56,1.87,4.66,3.39h-3c-.1-.41-.38-1.2-1.84-1.2-1,0-1.36.46-1.36,1s.34.83,2.17,1.26c3.75.87,4.28,2.16,4.28,3.81,0,1.86-1.41,3.55-4.84,3.55s-4.82-1.64-5.07-3.64Z" transform="translate(-268.71 -276.98)"/><path class="cls-2" d="M280.8,285.11h8a5.58,5.58,0,0,1,3.35,1.12,13.88,13.88,0,0,1,4.54,5.86L306,314.82H295.26a13.78,13.78,0,0,1-5-6.24Z" transform="translate(-268.71 -276.98)"/><path class="cls-2" d="M299.54,285.11h8a5.59,5.59,0,0,1,3.36,1.12,13.88,13.88,0,0,1,4.54,5.86l9.27,22.73H314a13.78,13.78,0,0,1-5-6.24Z" transform="translate(-268.71 -276.98)"/><path class="cls-2" d="M277.18,303.82a5.68,5.68,0,0,0,1.1,11h9.28l-3.48-8.43a4.54,4.54,0,0,0-2.86-2.64h0A6.86,6.86,0,0,0,277.18,303.82Z" transform="translate(-268.71 -276.98)"/><path class="cls-3" d="M273.22,330.73c-1.16.5-2.3,1-3.42,1.61a5.1,5.1,0,0,0,4,2h50.43a5.09,5.09,0,0,0,5-4.47C317,326.08,294.24,321.63,273.22,330.73Z" transform="translate(-268.71 -276.98)"/><path class="cls-3" d="M271.72,327.26c21.18-9.17,43.4-5.61,57.6-1.38v-43.8a5.09,5.09,0,0,0-5.09-5.1H273.8a5.09,5.09,0,0,0-5.09,5.1v46.58C269.7,328.17,270.7,327.7,271.72,327.26Z" transform="translate(-268.71 -276.98)"/><path class="cls-2" d="M281,285.11h8a5.53,5.53,0,0,1,3.35,1.12,13.88,13.88,0,0,1,4.54,5.86l9.28,22.73H295.5a13.78,13.78,0,0,1-5-6.24Z" transform="translate(-268.71 -276.98)"/><path class="cls-2" d="M299.78,285.11h8a5.56,5.56,0,0,1,3.35,1.12,13.88,13.88,0,0,1,4.54,5.86l9.27,22.73H314.24a13.78,13.78,0,0,1-5-6.24Z" transform="translate(-268.71 -276.98)"/><path class="cls-2" d="M277.42,303.82a5.68,5.68,0,0,0,1.1,11h9.28l-3.48-8.43a4.54,4.54,0,0,0-2.86-2.64h0A6.86,6.86,0,0,0,277.42,303.82Z" transform="translate(-268.71 -276.98)"/></svg>