<?xml version="1.0" encoding="UTF-8" standalone="no"?>
<!DOCTYPE svg PUBLIC "-//W3C//DTD SVG 1.1//EN" "http://www.w3.org/Graphics/SVG/1.1/DTD/svg11.dtd">
<svg width="32px" height="32px" viewBox="0 0 32 32" version="1.1" xmlns="http://www.w3.org/2000/svg" xmlns:xlink="http://www.w3.org/1999/xlink">
    <g id="favicon">
        <rect fill="#f15a27" x="0" y="0" width="32" height="32" rx="4"/>
        <g transform="translate(4, 6)" fill="#ffffff">
            <path d="M3.5,0h2.3a1.6,1.6 0 0,1 1,0.3 4,4 0 0,1 1.3,1.7l2.7,6.5h-3.1a4,4 0 0,1 -1.4,-1.8Z"/>
            <path d="M8.9,0h2.3a1.6,1.6 0 0,1 1,0.3 4,4 0 0,1 1.3,1.7l2.7,6.5h-3.1a4,4 0 0,1 -1.4,-1.8Z"/>
            <path d="M2.4,5.4a1.6,1.6 0 0,0 0.3,3.2h2.7l-1,-2.4a1.3,1.3 0 0,0 -0.8,-0.8h0a2,2 0 0,0 -1.2,0Z"/>
        </g>
    </g>
</svg>